<?xml version="1.0" encoding="UTF-8" standalone="no"?>
<svg
   xmlns:dc="http://purl.org/dc/elements/1.1/"
   xmlns:cc="http://creativecommons.org/ns#"
   xmlns:rdf="http://www.w3.org/1999/02/22-rdf-syntax-ns#"
   xmlns:svg="http://www.w3.org/2000/svg"
   xmlns="http://www.w3.org/2000/svg"
   xmlns:xlink="http://www.w3.org/1999/xlink"
   xmlns:sodipodi="http://sodipodi.sourceforge.net/DTD/sodipodi-0.dtd"
   xmlns:inkscape="http://www.inkscape.org/namespaces/inkscape"
   width="54"
   height="32"
   id="svg3613"
   version="1.1"
   sodipodi:docname="applications.svg"
   inkscape:version="0.92.4 (unknown)">
  <sodipodi:namedview
     pagecolor="#ffffff"
     bordercolor="#666666"
     borderopacity="1"
     objecttolerance="10"
     gridtolerance="10"
     guidetolerance="10"
     inkscape:pageopacity="0"
     inkscape:pageshadow="2"
     inkscape:window-width="1366"
     inkscape:window-height="723"
     id="namedview12"
     showgrid="true"
     inkscape:zoom="6.1982329"
     inkscape:cx="7.3545481"
     inkscape:cy="3.5615436"
     inkscape:window-x="0"
     inkscape:window-y="22"
     inkscape:window-maximized="1"
     inkscape:current-layer="applications-other">
    <inkscape:grid
       type="xygrid"
       id="grid818" />
  </sodipodi:namedview>
  <metadata
     id="metadata13">
    <rdf:RDF>
      <cc:Work
         rdf:about="">
        <dc:format>image/svg+xml</dc:format>
        <dc:type
           rdf:resource="http://purl.org/dc/dcmitype/StillImage" />
        <dc:title />
      </cc:Work>
    </rdf:RDF>
  </metadata>
  <defs
     id="defs3615">
    <linearGradient
       inkscape:collect="always"
       id="linearGradient826">
      <stop
         style="stop-color:#ff8fc3;stop-opacity:1"
         offset="0"
         id="stop822" />
      <stop
         style="stop-color:#a1a1ff;stop-opacity:1"
         offset="1"
         id="stop824" />
    </linearGradient>
    <style
       type="text/css"
       id="current-color-scheme">
      .ColorScheme-Text {
        color:#31363b;
      }
      .ColorScheme-Background{
        color:#E9E8E8;
      }
      .ColorScheme-ViewText {
        color:#31363b;
      }
      .ColorScheme-ViewBackground{
        color:#ffffff;
      }
      .ColorScheme-ViewHover {
        color:#000000;
      }
      .ColorScheme-ViewFocus{
        color:#5a5a5a;
      }
      .ColorScheme-ButtonText {
        color:#31363b;
      }
      .ColorScheme-ButtonBackground{
        color:#E9E8E8;
      }
      .ColorScheme-ButtonHover {
        color:#1489ff;
      }
      .ColorScheme-ButtonFocus{
        color:#2B74C7;
      }
</style>
    <linearGradient
       inkscape:collect="always"
       xlink:href="#linearGradient826"
       id="linearGradient828"
       x1="3"
       y1="15.999992"
       x2="29"
       y2="15.999992"
       gradientUnits="userSpaceOnUse" />
  </defs>
  <g
     style="clip-rule:evenodd;fill-rule:evenodd;stroke-linejoin:round;stroke-miterlimit:1.41420996"
     id="22-22-applications-other"
     transform="translate(-2.071433e-6,10.000015)">
    <path
       inkscape:connector-curvature="0"
       id="path2"
       d="m 2,2 v 8 h 8 V 2 Z m 10,0 v 8 h 8 V 2 Z M 3,3 H 9 V 9 H 3 Z m 10,0 h 6 V 9 H 13 Z M 2,12 v 8 h 8 v -8 z m 13,0 v 3 h -3 v 2 h 3 v 3 h 2 v -3 h 3 V 15 H 17 V 12 Z M 3,13 h 6 v 6 H 3 Z"
       style="fill:#C3C7D1" />
    <rect
       y="0"
       x="0"
       height="22"
       width="22"
       id="rect824"
       style="fill:#ffffff;fill-opacity:0;stroke-width:1.00855625" />
  </g>
  <g
     style="clip-rule:evenodd;fill-rule:evenodd;stroke-linejoin:round;stroke-miterlimit:1.41420996"
     id="applications-other"
     transform="translate(21.999998,1.5e-5)">
    <path
       inkscape:connector-curvature="0"
       id="path2-6"
       style="fill:url(#linearGradient828);fill-opacity:1"
       d="M 3,27 3.000002,4.999985 29,5 V 27 Z M 28,10 H 4 l 2e-6,15.999985 h 24 z m -8,14 h -8 c -1.104,0 -2,-0.896 -2,-2 v -8 c 0,-1.104 0.896,-2 2,-2 h 8 c 1.104,0 2,0.896 2,2 v 8 c 0,1.104 -0.896,2 -2,2 z m 0,-11 h -8 c -0.552,0 -1,0.448 -1,1 v 8 c 0,0.552 0.448,1 1,1 h 8 c 0.552,0 1,-0.448 1,-1 v -8 c 0,-0.552 -0.448,-1 -1,-1 z m 4,1 v 8 H 23 V 14 Z M 9,14 v 8 H 8 v -8 z m 17,2 v 4 H 25 V 16 Z M 7,16 v 4 H 6 V 16 Z M 4.000002,5.999985 4,9 h 24 l 2e-6,-3.000015 z M 27,7 V 8 H 25 V 7 Z M 24,7 V 8 H 22 V 7 Z M 21,7 V 8 H 19 V 7 Z"
       sodipodi:nodetypes="ccccccccccccsssssscssssssssscccccccccccccccccccccccccccccccccccccccc" />
    <rect
       y="0"
       x="0"
       height="32"
       width="32"
       id="rect817"
       style="fill:#ffffff;fill-opacity:0;stroke-width:1.00212538" />
  </g>
</svg>
