<?xml version="1.0" encoding="UTF-8" standalone="no"?>
<svg
   xmlns:dc="http://purl.org/dc/elements/1.1/"
   xmlns:cc="http://creativecommons.org/ns#"
   xmlns:rdf="http://www.w3.org/1999/02/22-rdf-syntax-ns#"
   xmlns:svg="http://www.w3.org/2000/svg"
   xmlns="http://www.w3.org/2000/svg"
   xmlns:sodipodi="http://sodipodi.sourceforge.net/DTD/sodipodi-0.dtd"
   xmlns:inkscape="http://www.inkscape.org/namespaces/inkscape"
   width="54"
   height="32"
   id="svg3613"
   version="1.1"
   sodipodi:docname="applications.svg"
   inkscape:version="0.92.4 (unknown)">
  <sodipodi:namedview
     pagecolor="#ffffff"
     bordercolor="#666666"
     borderopacity="1"
     objecttolerance="10"
     gridtolerance="10"
     guidetolerance="10"
     inkscape:pageopacity="0"
     inkscape:pageshadow="2"
     inkscape:window-width="1366"
     inkscape:window-height="723"
     id="namedview12"
     showgrid="true"
     inkscape:zoom="4.9649048"
     inkscape:cx="-15.241355"
     inkscape:cy="3.5615436"
     inkscape:window-x="0"
     inkscape:window-y="22"
     inkscape:window-maximized="1"
     inkscape:current-layer="applications-other"
     showguides="false">
    <inkscape:grid
       type="xygrid"
       id="grid818" />
  </sodipodi:namedview>
  <metadata
     id="metadata13">
    <rdf:RDF>
      <cc:Work
         rdf:about="">
        <dc:format>image/svg+xml</dc:format>
        <dc:type
           rdf:resource="http://purl.org/dc/dcmitype/StillImage" />
        <dc:title />
      </cc:Work>
    </rdf:RDF>
  </metadata>
  <defs
     id="defs3615">
    <style
       type="text/css"
       id="current-color-scheme">
      .ColorScheme-Text {
        color:#31363b;
      }
      .ColorScheme-Background{
        color:#E9E8E8;
      }
      .ColorScheme-ViewText {
        color:#31363b;
      }
      .ColorScheme-ViewBackground{
        color:#ffffff;
      }
      .ColorScheme-ViewHover {
        color:#000000;
      }
      .ColorScheme-ViewFocus{
        color:#5a5a5a;
      }
      .ColorScheme-ButtonText {
        color:#31363b;
      }
      .ColorScheme-ButtonBackground{
        color:#E9E8E8;
      }
      .ColorScheme-ButtonHover {
        color:#1489ff;
      }
      .ColorScheme-ButtonFocus{
        color:#2B74C7;
      }
</style>
    <linearGradient
       gradientUnits="userSpaceOnUse"
       gradientTransform="matrix(0.9372538,0,0,0.8879216,-20.758812,0.2840141)"
       id="_lgradient_0"
       x1="24.319946"
       y1="8.1762206"
       x2="37.773532"
       y2="8.1762206">
      <stop
         offset="0%"
         stop-opacity="1"
         style="stop-color:rgb(255,143,195)"
         id="stop15" />
      <stop
         offset="100%"
         stop-opacity="1"
         style="stop-color:rgb(161,161,255)"
         id="stop17" />
    </linearGradient>
    <linearGradient
       gradientUnits="userSpaceOnUse"
       gradientTransform="matrix(0.9309871,0,0,0.88815657,-20.526537,0.18059895)"
       id="_lgradient_1"
       x1="40.878206"
       y1="8.1762206"
       x2="54.331793"
       y2="8.1762206">
      <stop
         offset="0%"
         stop-opacity="1"
         style="stop-color:rgb(255,143,195)"
         id="stop22" />
      <stop
         offset="100%"
         stop-opacity="1"
         style="stop-color:rgb(161,161,255)"
         id="stop24" />
    </linearGradient>
    <linearGradient
       gradientUnits="userSpaceOnUse"
       gradientTransform="matrix(0.93725384,0,0,0.88792155,-20.824864,3.8441594)"
       id="_lgradient_2"
       x1="40.878206"
       y1="22.7449"
       x2="54.331793"
       y2="22.7449">
      <stop
         offset="0%"
         stop-opacity="1"
         style="stop-color:rgb(255,143,195)"
         id="stop29" />
      <stop
         offset="100%"
         stop-opacity="1"
         style="stop-color:rgb(161,161,255)"
         id="stop31" />
    </linearGradient>
    <linearGradient
       gradientUnits="userSpaceOnUse"
       gradientTransform="matrix(0.9372538,0,0,0.88792154,-20.753846,3.8441586)"
       id="_lgradient_3"
       x1="24.319946"
       y1="22.7449"
       x2="37.773532"
       y2="22.7449">
      <stop
         offset="0%"
         stop-opacity="1"
         style="stop-color:rgb(255,143,195)"
         id="stop36" />
      <stop
         offset="100%"
         stop-opacity="1"
         style="stop-color:rgb(161,161,255)"
         id="stop38" />
    </linearGradient>
    <linearGradient
       gradientTransform="matrix(1.1199999,0,0,1.1199999,-27.239997,-1.9800147)"
       gradientUnits="userSpaceOnUse"
       id="_lgradient_4"
       x1="26.5"
       y1="15.999999"
       x2="51.5"
       y2="15.999999">
      <stop
         offset="0%"
         stop-opacity="1"
         style="stop-color:rgb(255,143,195)"
         id="stop15-3" />
      <stop
         offset="100%"
         stop-opacity="1"
         style="stop-color:rgb(161,161,255)"
         id="stop17-6" />
    </linearGradient>
  </defs>
  <g
     style="clip-rule:evenodd;fill-rule:evenodd;stroke-linejoin:round;stroke-miterlimit:1.41420996"
     id="22-22-applications-other"
     transform="translate(-2.071433e-6,10.000015)">
    <path
       inkscape:connector-curvature="0"
       id="path2"
       d="m 2,2 v 8 h 8 V 2 Z m 10,0 v 8 h 8 V 2 Z M 3,3 H 9 V 9 H 3 Z m 10,0 h 6 V 9 H 13 Z M 2,12 v 8 h 8 v -8 z m 13,0 v 3 h -3 v 2 h 3 v 3 h 2 v -3 h 3 V 15 H 17 V 12 Z M 3,13 h 6 v 6 H 3 Z"
       style="fill:#C3C7D1" />
    <rect
       y="0"
       x="0"
       height="22"
       width="22"
       id="rect824"
       style="fill:#ffffff;fill-opacity:0;stroke-width:1.00855625" />
  </g>
  <g
     style="clip-rule:evenodd;fill-rule:evenodd;stroke-linejoin:round;stroke-miterlimit:1.41420996"
     id="applications-other"
     transform="translate(21.999998,1.5e-5)">
    <path
       style="fill:#ffffc1;fill-opacity:0;stroke-width:1.00212538"
       d="M 22,0 V 32 H 54 V 0 Z"
       transform="translate(-21.999998,-1.5e-5)"
       id="rect817"
       inkscape:connector-curvature="0" />
    <path
       d="m 4.120002,2.4999855 h 8.96 c 0.61824,0 1.120001,0.50176 1.120001,1.1199998 v 8.9599997 c 0,0.618241 -0.501761,1.120001 -1.120001,1.120001 h -8.96 c -0.61824,0 -1.12,-0.50176 -1.12,-1.120001 V 3.6199853 c 0,-0.6182398 0.50176,-1.1199998 1.12,-1.1199998 z m 15.68,0 h 8.960001 c 0.618236,0 1.119999,0.50176 1.119999,1.1199998 v 8.9599997 c 0,0.618241 -0.501763,1.120001 -1.119999,1.120001 h -8.960001 c -0.61824,0 -1.119999,-0.50176 -1.119999,-1.120001 V 3.6199853 c 0,-0.6182398 0.501759,-1.1199998 1.119999,-1.1199998 z m 0,15.6799995 h 8.960001 c 0.618236,0 1.119999,0.50176 1.119999,1.12 v 8.960001 c 0,0.618239 -0.501763,1.119999 -1.119999,1.119999 h -8.960001 c -0.61824,0 -1.119999,-0.50176 -1.119999,-1.119999 v -8.960001 c 0,-0.61824 0.501759,-1.12 1.119999,-1.12 z m -15.68,0 h 8.96 c 0.61824,0 1.120001,0.50176 1.120001,1.12 v 8.960001 c 0,0.618239 -0.501761,1.119999 -1.120001,1.119999 h -8.96 c -0.61824,0 -1.12,-0.50176 -1.12,-1.119999 v -8.960001 c 0,-0.61824 0.50176,-1.12 1.12,-1.12 z"
       stroke-miterlimit="3"
       id="path20"
       inkscape:connector-curvature="0"
       style="isolation:isolate;vector-effect:non-scaling-stroke;fill:none;fill-rule:evenodd;stroke:url(#_lgradient_4);stroke-width:1.11999989;stroke-linecap:square;stroke-linejoin:miter;stroke-miterlimit:3" />
  </g>
</svg>
