<?xml version="1.0" encoding="UTF-8" standalone="no"?>
<svg
   xmlns:serif="http://www.serif.com/"
   xmlns:dc="http://purl.org/dc/elements/1.1/"
   xmlns:cc="http://creativecommons.org/ns#"
   xmlns:rdf="http://www.w3.org/1999/02/22-rdf-syntax-ns#"
   xmlns:svg="http://www.w3.org/2000/svg"
   xmlns="http://www.w3.org/2000/svg"
   xmlns:xlink="http://www.w3.org/1999/xlink"
   xmlns:sodipodi="http://sodipodi.sourceforge.net/DTD/sodipodi-0.dtd"
   xmlns:inkscape="http://www.inkscape.org/namespaces/inkscape"
   width="54"
   height="32"
   id="svg3613"
   version="1.1"
   sodipodi:docname="bookmarks.svg"
   inkscape:version="0.92.4 (unknown)">
  <sodipodi:namedview
     pagecolor="#ffffff"
     bordercolor="#666666"
     borderopacity="1"
     objecttolerance="10"
     gridtolerance="10"
     guidetolerance="10"
     inkscape:pageopacity="0"
     inkscape:pageshadow="2"
     inkscape:window-width="1366"
     inkscape:window-height="723"
     id="namedview12"
     showgrid="true"
     inkscape:zoom="7.0814887"
     inkscape:cx="-5.370113"
     inkscape:cy="13.338741"
     inkscape:window-x="0"
     inkscape:window-y="22"
     inkscape:window-maximized="1"
     inkscape:current-layer="bookmarks">
    <inkscape:grid
       type="xygrid"
       id="grid822" />
  </sodipodi:namedview>
  <metadata
     id="metadata13">
    <rdf:RDF>
      <cc:Work
         rdf:about="">
        <dc:format>image/svg+xml</dc:format>
        <dc:type
           rdf:resource="http://purl.org/dc/dcmitype/StillImage" />
        <dc:title />
      </cc:Work>
    </rdf:RDF>
  </metadata>
  <defs
     id="defs3615">
    <linearGradient
       id="linearGradient842"
       inkscape:collect="always">
      <stop
         id="stop838"
         offset="0"
         style="stop-color:#f237ef;stop-opacity:1" />
      <stop
         id="stop840"
         offset="1"
         style="stop-color:#fc5252;stop-opacity:1" />
    </linearGradient>
    <style
       type="text/css"
       id="current-color-scheme">
      .ColorScheme-Text {
        color:#31363b;
      }
      .ColorScheme-Background{
        color:#E9E8E8;
      }
      .ColorScheme-ViewText {
        color:#31363b;
      }
      .ColorScheme-ViewBackground{
        color:#ffffff;
      }
      .ColorScheme-ViewHover {
        color:#000000;
      }
      .ColorScheme-ViewFocus{
        color:#5a5a5a;
      }
      .ColorScheme-ButtonText {
        color:#31363b;
      }
      .ColorScheme-ButtonBackground{
        color:#E9E8E8;
      }
      .ColorScheme-ButtonHover {
        color:#1489ff;
      }
      .ColorScheme-ButtonFocus{
        color:#2B74C7;
      }
</style>
    <linearGradient
       inkscape:collect="always"
       xlink:href="#linearGradient842"
       id="linearGradient834"
       x1="8"
       y1="16"
       x2="24"
       y2="16"
       gradientUnits="userSpaceOnUse" />
    <linearGradient
       inkscape:collect="always"
       xlink:href="#linearGradient842"
       id="linearGradient836"
       x1="12"
       y1="14"
       x2="20"
       y2="14"
       gradientUnits="userSpaceOnUse" />
  </defs>
  <g
     style="clip-rule:evenodd;fill-rule:evenodd;stroke-linejoin:round;stroke-miterlimit:1.41420996"
     id="bookmarks"
     transform="translate(22)">
    <path
       inkscape:connector-curvature="0"
       id="path2"
       style="fill:url(#linearGradient834);fill-opacity:1.0"
       d="M 24,4 V 28 H 22.5 L 16,24.5 9.5,28 H 8 V 4 Z M 23,5 H 9 v 22 l 7,-4 7,4 z" />
    <path
       inkscape:connector-curvature="0"
       style="fill:url(#linearGradient836);fill-opacity:1"
       d="m 17.889,10.334 0.056,0.002 0.055,0.003 0.055,0.005 0.054,0.006 0.054,0.008 0.054,0.009 0.053,0.01 0.053,0.011 0.052,0.013 0.051,0.014 0.052,0.015 0.05,0.017 0.05,0.017 0.05,0.019 0.049,0.02 0.048,0.021 0.048,0.023 0.047,0.023 0.046,0.025 0.046,0.025 0.045,0.027 0.044,0.027 0.044,0.029 0.043,0.03 0.042,0.031 0.041,0.031 0.041,0.033 0.039,0.033 0.039,0.035 0.038,0.035 0.037,0.037 0.037,0.037 0.035,0.038 0.035,0.039 0.033,0.04 0.033,0.04 0.032,0.041 0.03,0.043 0.03,0.042 0.029,0.044 0.027,0.044 0.027,0.045 0.025,0.046 0.025,0.046 0.023,0.047 0.023,0.048 0.021,0.048 0.02,0.049 0.019,0.05 0.017,0.05 0.017,0.05 0.015,0.052 0.014,0.051 0.013,0.052 0.011,0.053 0.01,0.053 0.009,0.054 0.008,0.054 0.006,0.054 0.005,0.055 0.003,0.055 0.002,0.056 0.001,0.056 -0.001,0.059 -0.002,0.059 -0.003,0.059 -0.005,0.059 -0.007,0.059 -0.008,0.059 -0.009,0.059 -0.01,0.059 -0.012,0.059 -0.012,0.059 -0.015,0.059 -0.015,0.059 -0.016,0.059 -0.018,0.059 -0.019,0.059 -0.02,0.059 -0.021,0.058 -0.022,0.059 -0.023,0.058 -0.024,0.059 -0.026,0.058 -0.026,0.058 -0.027,0.058 -0.028,0.058 -0.029,0.058 -0.03,0.058 -0.031,0.057 -0.031,0.057 -0.033,0.057 -0.033,0.057 -0.034,0.057 -0.035,0.057 -0.072,0.112 -0.074,0.112 -0.077,0.11 -0.08,0.11 -0.081,0.109 -0.084,0.107 -0.085,0.106 -0.088,0.105 -0.088,0.104 -0.09,0.102 -0.091,0.101 -0.092,0.099 -0.093,0.098 -0.093,0.096 -0.093,0.094 -0.094,0.093 -0.094,0.091 -0.093,0.088 -0.093,0.087 -0.093,0.085 -0.092,0.083 -0.091,0.08 -0.09,0.079 -0.088,0.076 -0.087,0.073 -0.086,0.072 -0.165,0.135 -0.157,0.124 -0.146,0.114 -0.134,0.102 -0.122,0.09 -0.107,0.078 -0.09,0.065 -0.127,0.088 L 16,17.667 15.955,17.636 15.828,17.548 15.738,17.483 15.631,17.405 15.51,17.315 15.375,17.213 15.229,17.099 15.072,16.975 14.907,16.84 14.822,16.768 14.734,16.695 14.646,16.619 14.556,16.54 14.465,16.46 14.373,16.377 14.28,16.292 14.187,16.205 14.094,16.117 14,16.026 13.906,15.933 13.813,15.839 13.72,15.743 13.627,15.645 13.535,15.546 13.444,15.445 13.354,15.343 13.266,15.239 13.179,15.134 13.093,15.028 13.009,14.921 12.928,14.812 12.848,14.702 12.771,14.592 12.697,14.48 12.625,14.368 12.59,14.311 12.556,14.254 12.523,14.197 12.49,14.14 12.459,14.083 12.428,14.026 12.398,13.968 12.369,13.91 12.341,13.852 12.314,13.794 12.288,13.736 12.262,13.678 12.238,13.619 12.215,13.561 12.193,13.502 12.172,13.444 12.152,13.385 12.133,13.326 12.115,13.267 12.099,13.208 12.084,13.149 12.069,13.09 12.057,13.031 12.045,12.972 12.035,12.913 12.026,12.854 12.018,12.795 12.011,12.736 12.006,12.677 12.003,12.618 12.001,12.559 12,12.5 l 10e-4,-0.056 0.002,-0.056 0.003,-0.055 0.005,-0.055 0.006,-0.054 0.008,-0.054 0.009,-0.054 0.01,-0.053 0.011,-0.053 0.013,-0.052 0.014,-0.051 0.015,-0.052 0.017,-0.05 0.017,-0.05 0.019,-0.05 0.02,-0.049 0.021,-0.048 0.023,-0.048 0.023,-0.047 0.025,-0.046 0.025,-0.046 0.027,-0.045 0.027,-0.044 0.029,-0.044 0.03,-0.042 0.03,-0.043 0.032,-0.041 0.033,-0.04 0.033,-0.04 0.035,-0.039 0.035,-0.038 0.037,-0.037 0.037,-0.037 0.038,-0.035 0.039,-0.035 0.039,-0.033 0.041,-0.033 0.041,-0.031 0.042,-0.031 0.043,-0.03 0.044,-0.029 0.044,-0.027 0.045,-0.027 0.046,-0.025 0.046,-0.025 0.047,-0.023 0.048,-0.023 0.048,-0.021 0.049,-0.02 0.05,-0.019 0.05,-0.017 0.05,-0.017 0.052,-0.015 0.051,-0.014 0.052,-0.013 0.053,-0.011 0.053,-0.01 0.054,-0.009 0.054,-0.008 0.054,-0.006 0.055,-0.005 0.055,-0.003 0.056,-0.002 0.056,-10e-4 0.072,10e-4 0.071,0.004 0.071,0.005 0.07,0.009 0.07,0.01 0.069,0.012 0.068,0.015 0.067,0.017 0.066,0.018 0.066,0.021 0.064,0.023 0.064,0.025 0.062,0.027 0.062,0.028 0.061,0.031 0.059,0.032 0.058,0.034 0.057,0.036 0.056,0.037 0.055,0.039 0.053,0.041 0.052,0.043 0.051,0.044 0.049,0.045 0.048,0.047 0.046,0.048 0.045,0.05 0.044,0.052 0.042,0.052 0.04,0.054 0.038,0.055 0.037,0.056 0.037,-0.056 0.038,-0.055 0.041,-0.054 0.041,-0.052 0.044,-0.052 0.045,-0.05 0.046,-0.048 0.048,-0.047 0.049,-0.045 0.051,-0.044 0.052,-0.043 0.053,-0.041 0.055,-0.039 0.056,-0.037 0.057,-0.036 0.058,-0.034 0.06,-0.032 0.06,-0.031 0.062,-0.028 0.062,-0.027 0.064,-0.025 0.064,-0.023 0.066,-0.021 0.066,-0.018 0.067,-0.017 0.068,-0.015 0.069,-0.012 0.07,-0.01 0.07,-0.009 0.071,-0.005 0.071,-0.004 0.072,-10e-4 z m -3.753,0.999 -0.03,0.002 -0.03,0.002 -0.03,0.002 -0.029,0.004 -0.029,0.004 -0.029,0.004 -0.028,0.006 -0.029,0.006 -0.028,0.007 -0.027,0.007 -0.028,0.008 -0.027,0.009 -0.026,0.01 -0.027,0.01 -0.026,0.01 -0.026,0.012 -0.026,0.012 -0.025,0.012 -0.025,0.013 -0.024,0.014 -0.024,0.014 -0.024,0.015 -0.024,0.016 -0.023,0.016 -0.023,0.016 -0.022,0.017 -0.022,0.018 -0.021,0.018 -0.021,0.019 -0.021,0.019 -0.02,0.02 -0.02,0.02 -0.019,0.021 -0.019,0.021 -0.018,0.021 -0.018,0.022 -0.017,0.022 -0.016,0.023 -0.016,0.023 -0.016,0.024 -0.015,0.024 -0.014,0.024 -0.014,0.024 -0.013,0.025 -0.012,0.026 -0.012,0.025 -0.012,0.026 -0.01,0.026 -0.01,0.027 -0.01,0.026 -0.009,0.027 -0.008,0.028 -0.007,0.027 -0.007,0.028 -0.006,0.029 -0.006,0.028 -0.004,0.029 -0.004,0.029 -0.004,0.029 -0.002,0.03 -0.002,0.03 L 13,12.469 V 12.5 l 10e-4,0.034 0.001,0.035 0.002,0.035 0.003,0.036 0.004,0.037 0.005,0.037 0.005,0.037 0.007,0.038 0.008,0.039 0.008,0.039 0.01,0.04 0.01,0.04 0.012,0.041 0.012,0.042 0.014,0.042 0.014,0.042 0.015,0.043 0.017,0.043 0.017,0.044 0.018,0.044 0.019,0.044 0.021,0.045 0.021,0.045 0.022,0.045 0.023,0.046 0.024,0.046 0.024,0.046 0.026,0.047 0.026,0.046 0.028,0.047 0.028,0.047 0.028,0.045 0.061,0.097 0.064,0.094 0.066,0.095 0.068,0.095 0.072,0.095 0.073,0.095 0.076,0.094 0.077,0.093 0.08,0.093 0.081,0.092 0.082,0.091 0.084,0.091 0.084,0.089 0.086,0.088 0.086,0.087 0.086,0.085 0.087,0.084 0.086,0.082 0.087,0.081 0.086,0.079 0.086,0.077 0.085,0.075 0.084,0.073 0.083,0.071 0.082,0.069 0.078,0.066 0.157,0.128 0.147,0.117 0.137,0.107 0.016,0.012 0.016,-0.012 0.137,-0.107 0.147,-0.117 0.157,-0.128 0.079,-0.066 0.081,-0.069 0.083,-0.071 0.084,-0.073 0.085,-0.075 0.086,-0.077 0.086,-0.079 0.087,-0.081 0.086,-0.082 0.087,-0.084 0.086,-0.085 0.086,-0.087 0.086,-0.088 0.084,-0.089 0.084,-0.091 0.082,-0.091 0.081,-0.092 0.08,-0.093 0.077,-0.093 0.076,-0.094 0.073,-0.095 0.072,-0.095 0.068,-0.095 0.066,-0.095 0.064,-0.094 0.061,-0.097 0.028,-0.045 0.028,-0.047 0.028,-0.047 0.026,-0.046 0.026,-0.047 0.024,-0.046 0.024,-0.046 0.023,-0.046 0.022,-0.045 0.021,-0.045 0.021,-0.045 0.019,-0.044 0.018,-0.044 0.017,-0.044 0.017,-0.043 0.015,-0.043 0.014,-0.042 0.014,-0.042 0.012,-0.042 0.012,-0.041 0.01,-0.04 0.01,-0.04 0.008,-0.039 0.008,-0.039 0.007,-0.038 0.005,-0.037 0.005,-0.037 0.004,-0.037 0.003,-0.036 0.002,-0.035 10e-4,-0.035 L 19,12.5 v -0.031 l -0.002,-0.03 -0.002,-0.03 -0.002,-0.03 L 18.99,12.35 18.986,12.321 18.982,12.292 18.976,12.264 18.97,12.235 18.963,12.207 18.956,12.18 18.948,12.152 18.939,12.125 18.929,12.099 18.919,12.072 18.909,12.046 18.897,12.02 18.885,11.995 18.873,11.969 18.86,11.944 18.846,11.92 18.832,11.896 18.817,11.872 18.801,11.848 18.785,11.825 18.769,11.802 18.752,11.78 l -0.018,-0.022 -0.018,-0.021 -0.019,-0.021 -0.019,-0.021 -0.02,-0.02 -0.02,-0.02 -0.021,-0.019 -0.021,-0.019 -0.021,-0.018 -0.022,-0.018 -0.022,-0.017 -0.023,-0.016 -0.023,-0.016 -0.024,-0.016 -0.024,-0.015 -0.024,-0.014 -0.024,-0.014 -0.025,-0.013 -0.025,-0.012 -0.026,-0.012 -0.026,-0.012 -0.026,-0.01 -0.027,-0.01 -0.026,-0.01 -0.027,-0.009 -0.028,-0.008 -0.027,-0.007 -0.028,-0.007 -0.029,-0.006 -0.028,-0.006 -0.029,-0.004 -0.029,-0.004 -0.029,-0.004 -0.03,-0.002 -0.03,-0.002 -0.03,-0.002 h -0.029 l -0.041,10e-4 -0.039,0.002 -0.038,0.003 -0.038,0.004 -0.038,0.006 -0.036,0.006 -0.037,0.008 -0.036,0.009 -0.035,0.01 -0.035,0.011 -0.035,0.013 -0.034,0.013 -0.033,0.014 -0.033,0.015 -0.033,0.017 -0.032,0.017 -0.031,0.018 -0.031,0.02 -0.03,0.02 -0.03,0.021 -0.028,0.022 -0.029,0.023 -0.027,0.024 -0.027,0.025 -0.026,0.025 -0.025,0.026 -0.024,0.027 -0.023,0.028 -0.023,0.028 -0.022,0.029 -0.021,0.03 -0.595,0.911 H 15.73 L 15.135,11.848 15.114,11.818 15.092,11.789 15.069,11.761 15.046,11.733 15.022,11.706 14.997,11.68 14.971,11.655 14.944,11.63 14.917,11.606 14.888,11.583 14.86,11.561 14.83,11.54 14.8,11.52 14.769,11.5 14.738,11.482 14.706,11.465 14.673,11.448 14.64,11.433 14.607,11.419 14.573,11.406 14.538,11.393 14.503,11.382 14.468,11.372 14.432,11.363 14.395,11.355 14.359,11.349 14.321,11.343 14.283,11.339 14.245,11.336 14.206,11.334 14.165,11.333 Z"
       serif:id="Heart Icon"
       id="Heart-Icon" />
    <rect
       y="0"
       x="0"
       height="32"
       width="32"
       id="rect820"
       style="fill:#2020ff;fill-opacity:0" />
  </g>
  <g
     style="clip-rule:evenodd;fill-rule:evenodd;stroke-linejoin:round;stroke-miterlimit:1.41420996"
     id="22-22-bookmarks"
     transform="translate(0,10)">
    <path
       inkscape:connector-curvature="0"
       id="path2-3"
       style="fill:#C3C7D1;fill-opacity:1"
       d="M 16,2 V 20 H 14.7 L 11,17.3 7.3,20 H 6 V 2 Z M 15,3 H 7 V 19 L 10.988,16 15,19 Z" />
    <rect
       y="0"
       x="0"
       height="22"
       width="22"
       id="rect817"
       style="fill:#ffffff;fill-opacity:0;stroke-width:1.00426447" />
  </g>
</svg>
