<?xml version="1.0" encoding="UTF-8" standalone="no"?>
<svg
   xmlns:dc="http://purl.org/dc/elements/1.1/"
   xmlns:cc="http://creativecommons.org/ns#"
   xmlns:rdf="http://www.w3.org/1999/02/22-rdf-syntax-ns#"
   xmlns:svg="http://www.w3.org/2000/svg"
   xmlns="http://www.w3.org/2000/svg"
   xmlns:xlink="http://www.w3.org/1999/xlink"
   xmlns:sodipodi="http://sodipodi.sourceforge.net/DTD/sodipodi-0.dtd"
   xmlns:inkscape="http://www.inkscape.org/namespaces/inkscape"
   version="1.1"
   id="svg2"
   viewBox="0 0 54 64"
   sodipodi:docname="view.svg"
   inkscape:version="0.92.4 (unknown)">
  <sodipodi:namedview
     pagecolor="#ffffff"
     bordercolor="#666666"
     borderopacity="1"
     objecttolerance="10"
     gridtolerance="10"
     guidetolerance="10"
     inkscape:pageopacity="0"
     inkscape:pageshadow="2"
     inkscape:window-width="1366"
     inkscape:window-height="723"
     id="namedview18"
     showgrid="true"
     inkscape:zoom="2.1914062"
     inkscape:cx="-57.505752"
     inkscape:cy="11.247475"
     inkscape:window-x="0"
     inkscape:window-y="22"
     inkscape:window-maximized="1"
     inkscape:current-layer="view-history" />
  <metadata
     id="metadata22">
    <rdf:RDF>
      <cc:Work
         rdf:about="">
        <dc:format>image/svg+xml</dc:format>
        <dc:type
           rdf:resource="http://purl.org/dc/dcmitype/StillImage" />
        <dc:title />
      </cc:Work>
    </rdf:RDF>
  </metadata>
  <defs
     id="defs3615">
    <linearGradient
       inkscape:collect="always"
       id="linearGradient831">
      <stop
         style="stop-color:#69e3ff;stop-opacity:1"
         offset="0"
         id="stop827" />
      <stop
         style="stop-color:#00ffc2;stop-opacity:1"
         offset="1"
         id="stop829" />
    </linearGradient>
    <style
       type="text/css"
       id="current-color-scheme">
      .ColorScheme-Text {
        color:#31363b;
      }
      .ColorScheme-Background{
        color:#E9E8E8;
      }
      .ColorScheme-ViewText {
        color:#31363b;
      }
      .ColorScheme-ViewBackground{
        color:#ffffff;
      }
      .ColorScheme-ViewHover {
        color:#000000;
      }
      .ColorScheme-ViewFocus{
        color:#5a5a5a;
      }
      .ColorScheme-ButtonText {
        color:#31363b;
      }
      .ColorScheme-ButtonBackground{
        color:#E9E8E8;
      }
      .ColorScheme-ButtonHover {
        color:#1489ff;
      }
      .ColorScheme-ButtonFocus{
        color:#2B74C7;
      }
</style>
    <linearGradient
       inkscape:collect="always"
       xlink:href="#linearGradient831"
       id="linearGradient833"
       x1="3"
       y1="16"
       x2="29"
       y2="16"
       gradientUnits="userSpaceOnUse" />
  </defs>
  <g
     style="clip-rule:evenodd;fill-rule:evenodd;stroke-linejoin:round;stroke-miterlimit:1.41420996"
     id="view-refresh"
     transform="translate(22)">
    <path
       inkscape:connector-curvature="0"
       id="path2"
       d="M 20,5 V 5 L 15.757,9.242 15.05,8.535 18.585,5 H 7 C 5.896,5 5,5.896 5,7 v 18 c 0,1.104 0.896,2 2,2 h 2 v 1 H 7 C 5.344,28 4,26.656 4,25 V 7 C 4,5.344 5.344,4 7,4 h 13 z m 5,-1 c 1.656,0 3,1.344 3,3 v 18 c 0,1.656 -1.344,3 -3,3 H 13 v -1 0 L 17.243,22.758 17.95,23.465 14.414,27 H 25 c 1.104,0 2,-0.896 2,-2 V 7 C 27,5.896 26.104,5 25,5 H 24 V 4 Z"
       style="fill:#c3c7d1;fill-opacity:1" />
    <rect
       y="0"
       x="0"
       height="32"
       width="32"
       id="rect817"
       style="fill:#ffffff;fill-opacity:0;stroke-width:0.79791683" />
  </g>
  <g
     style="clip-rule:evenodd;fill-rule:evenodd;stroke-linejoin:round;stroke-miterlimit:1.41420996"
     id="22-22-view-refresh">
    <path
       inkscape:connector-curvature="0"
       id="path2-8"
       style="fill:#C3C7D1"
       d="M 12,4 C 12,4 8.464,7.536 8.464,7.536 L 7.757,6.828 10.586,4 H 6 C 4.896,4 4,4.896 4,6 v 10 c 0,1.104 0.896,2 2,2 h 2 v 1 H 6 C 4.344,19 3,17.656 3,16 V 6 C 3,4.344 4.344,3 6,3 h 6 z M 11.414,18 H 16 c 1.104,0 2,-0.896 2,-2 V 6 C 18,4.896 17.104,4 16,4 H 14 V 3 h 2 c 1.656,0 3,1.344 3,3 v 10 c 0,1.656 -1.344,3 -3,3 h -6 v -1 c 0,0 3.536,-3.536 3.536,-3.536 l 0.707,0.708 z" />
    <rect
       y="0"
       x="0"
       height="22"
       width="22"
       id="rect817-7"
       style="fill:#ffffff;fill-opacity:0;stroke-width:0.78284866" />
  </g>
  <g
     style="clip-rule:evenodd;fill-rule:evenodd;stroke-linejoin:round;stroke-miterlimit:1.41420996"
     id="g838"
     transform="translate(22,64)">
    <path
       inkscape:connector-curvature="0"
       id="path2-7"
       d="M 16,4 C 22.623,4 28,9.377 28,16 28,22.623 22.623,28 16,28 9.377,28 4,22.623 4,16 4,9.377 9.377,4 16,4 Z m 0,1 C 22.071,5 27,9.929 27,16 27,22.071 22.071,27 16,27 9.929,27 5,22.071 5,16 5,9.929 9.929,5 16,5 Z m -1,2 h 1 v 9 h 9 v 1 H 15 Z"
       style="fill:#C3C7D1;fill-opacity:1"
       sodipodi:nodetypes="ssssssssssccccccc" />
    <rect
       y="0"
       x="0"
       height="32"
       width="32"
       id="rect817-6"
       style="fill:#ffffff;fill-opacity:0;stroke-width:0.73023731" />
  </g>
  <g
     style="clip-rule:evenodd;fill-rule:evenodd;stroke-linejoin:round;stroke-miterlimit:1.41420996"
     id="22-22-view-history"
     transform="translate(0,42)">
    <path
       inkscape:connector-curvature="0"
       id="path2-3"
       style="fill:#c3c7d1"
       d="m 11,3 c 4.415,0 8,3.585 8,8 0,4.415 -3.585,8 -8,8 C 6.585,19 3,15.415 3,11 3,6.585 6.585,3 11,3 Z m 0,1 c 3.863,0 7,3.137 7,7 0,3.863 -3.137,7 -7,7 C 7.137,18 4,14.863 4,11 4,7.137 7.137,4 11,4 Z m -1,1 h 1 v 6 h 6 v 1 h -7 z"
       sodipodi:nodetypes="ssssssssssccccccc" />
    <rect
       y="0"
       x="0"
       height="22"
       width="22"
       id="rect817-4"
       style="fill:#ffffff;fill-opacity:0;stroke-width:1.36692786" />
  </g>
  <g
     style="clip-rule:evenodd;fill-rule:evenodd;stroke-linejoin:round;stroke-miterlimit:1.41420996"
     id="view-history"
     transform="translate(22,32)">
    <path
       inkscape:connector-curvature="0"
       id="path2-89"
       style="fill:url(#linearGradient833);fill-opacity:1"
       d="M 6,15 V 5 C 6,3.896 6.896,3 8,3 h 16 c 1.104,0 2,0.896 2,2 v 10 h 3 V 29 H 3 V 15 Z m 22,1 H 4 v 12 h 24 z m -9,6 h -6 c -1.104,0 -2,-0.896 -2,-2 0,-1.104 0.896,-2 2,-2 h 6 c 1.104,0 2,0.896 2,2 0,1.104 -0.896,2 -2,2 z m 0,-3 h -6 c -0.552,0 -1,0.448 -1,1 0,0.552 0.448,1 1,1 h 6 c 0.552,0 1,-0.448 1,-1 0,-0.552 -0.448,-1 -1,-1 z M 24,4 H 8 C 7.448,4 7,4.448 7,5 V 15 H 25 V 5 C 25,4.448 24.552,4 24,4 Z M 9,12 h 14 v 1 H 9 Z M 9,9 h 14 v 1 H 9 Z M 9,6 H 23 V 7 H 9 Z" />
    <rect
       ry="0.91472864"
       y="0"
       x="0"
       height="32"
       width="32"
       id="rect817-5"
       style="fill:#ffffff;fill-opacity:0;stroke-width:1.04153919;stroke-miterlimit:1.41420996;stroke-dasharray:none" />
  </g>
</svg>
