<?xml version="1.0" encoding="UTF-8" standalone="no"?>
<!-- Created with Inkscape (http://www.inkscape.org/) -->

<svg
   width="119.13149"
   height="82.856133"
   id="svg3025"
   version="1.1"
   inkscape:version="1.2.1 (9c6d41e410, 2022-07-14)"
   sodipodi:docname="slider.svg"
   xmlns:inkscape="http://www.inkscape.org/namespaces/inkscape"
   xmlns:sodipodi="http://sodipodi.sourceforge.net/DTD/sodipodi-0.dtd"
   xmlns:xlink="http://www.w3.org/1999/xlink"
   xmlns="http://www.w3.org/2000/svg"
   xmlns:svg="http://www.w3.org/2000/svg"
   xmlns:rdf="http://www.w3.org/1999/02/22-rdf-syntax-ns#"
   xmlns:cc="http://creativecommons.org/ns#"
   xmlns:dc="http://purl.org/dc/elements/1.1/">
  <defs
     id="defs3027">
    <linearGradient
       id="linearGradient4207">
      <stop
         id="stop4209"
         offset="0"
         style="stop-color:#f5f5f5;stop-opacity:1;" />
      <stop
         id="stop4211"
         offset="1"
         style="stop-color:#e1e1e1;stop-opacity:1" />
    </linearGradient>
    <linearGradient
       id="linearGradient4185">
      <stop
         style="stop-color:#3e4348;stop-opacity:1"
         offset="0"
         id="stop4187" />
      <stop
         style="stop-color:#292f34;stop-opacity:1"
         offset="1"
         id="stop4189" />
    </linearGradient>
    <linearGradient
       id="linearGradient4182">
      <stop
         id="stop4184"
         offset="0"
         style="stop-color:#788080;stop-opacity:1" />
      <stop
         id="stop4186"
         offset="1"
         style="stop-color:#566060;stop-opacity:1" />
    </linearGradient>
    <linearGradient
       id="linearGradient4428">
      <stop
         style="stop-color:#f5f5f5;stop-opacity:1;"
         offset="0"
         id="stop4430" />
      <stop
         style="stop-color:#dedede;stop-opacity:1;"
         offset="1"
         id="stop4432" />
    </linearGradient>
    <linearGradient
       inkscape:collect="always"
       xlink:href="#linearGradient4428"
       id="linearGradient4434"
       x1="12"
       y1="3.1111112"
       x2="12"
       y2="22"
       gradientUnits="userSpaceOnUse" />
  </defs>
  <sodipodi:namedview
     id="base"
     pagecolor="#ececec"
     bordercolor="#666666"
     borderopacity="1.0"
     inkscape:pageopacity="1"
     inkscape:pageshadow="2"
     inkscape:zoom="3.3593935"
     inkscape:cx="59.832229"
     inkscape:cy="53.134591"
     inkscape:document-units="px"
     inkscape:current-layer="layer1"
     showgrid="true"
     inkscape:window-width="1698"
     inkscape:window-height="840"
     inkscape:window-x="0"
     inkscape:window-y="132"
     inkscape:window-maximized="0"
     fit-margin-top="0"
     fit-margin-left="0"
     fit-margin-right="0"
     fit-margin-bottom="0"
     inkscape:snap-bbox="true"
     inkscape:bbox-nodes="true"
     inkscape:object-nodes="true"
     inkscape:pagecheckerboard="0"
     inkscape:showpageshadow="2"
     inkscape:deskcolor="#ececec">
    <inkscape:grid
       type="xygrid"
       id="grid3033"
       empspacing="5"
       visible="true"
       enabled="true"
       snapvisiblegridlinesonly="true"
       originx="31"
       originy="66.000031" />
  </sodipodi:namedview>
  <metadata
     id="metadata3030">
    <rdf:RDF>
      <cc:Work
         rdf:about="">
        <dc:format>image/svg+xml</dc:format>
        <dc:type
           rdf:resource="http://purl.org/dc/dcmitype/StillImage" />
        <dc:title />
      </cc:Work>
    </rdf:RDF>
  </metadata>
  <g
     inkscape:label="Capa 1"
     inkscape:groupmode="layer"
     id="layer1"
     transform="translate(31,-1035.5061)">
    <path
       style="opacity:0.15;fill:#c3c7d1;fill-opacity:1;stroke:none;stroke-width:0.666667"
       d="m 34,1046.3622 h 2 v 2 h -2 z"
       id="groove-center"
       inkscape:connector-curvature="0"
       sodipodi:nodetypes="ccccc" />
    <path
       style="opacity:0.15;fill:#c3c7d1;fill-opacity:1;stroke:none;stroke-width:0.816497"
       d="m 36,1042.3622 h -2 v 3 h 2 z"
       id="groove-top"
       inkscape:connector-curvature="0" />
    <path
       style="opacity:0.15;fill:#c3c7d1;fill-opacity:1;stroke:none"
       d="m 40,1045.3622 c 0,-1.662 -1.338,-3 -3,-3 v 3 z"
       id="groove-topright"
       inkscape:connector-curvature="0" />
    <path
       style="opacity:0.15;fill:#c3c7d1;fill-opacity:1;stroke:none;stroke-width:0.816497"
       d="m 40,1048.3622 v -2 h -3 v 2 z"
       id="groove-right"
       inkscape:connector-curvature="0" />
    <path
       style="opacity:0.15;fill:#c3c7d1;fill-opacity:1;stroke:none"
       d="m 37,1052.3622 c 1.662,0 3,-1.338 3,-3 h -3 z"
       id="groove-bottomright"
       inkscape:connector-curvature="0" />
    <path
       style="opacity:0.15;fill:#c3c7d1;fill-opacity:1;stroke:none;stroke-width:0.816497"
       d="m 34,1052.3622 h 2 v -3 h -2 z"
       id="groove-bottom"
       inkscape:connector-curvature="0" />
    <path
       style="opacity:0.15;fill:#c3c7d1;fill-opacity:1;stroke:none"
       d="m 30,1049.3622 c 0,1.662 1.338,3 3,3 v -3 z"
       id="groove-bottomleft"
       inkscape:connector-curvature="0" />
    <path
       style="opacity:0.15;fill:#c3c7d1;fill-opacity:1;stroke:none;stroke-width:0.816497"
       d="m 30,1046.3622 v 2 h 3 v -2 z"
       id="groove-left"
       inkscape:connector-curvature="0" />
    <path
       style="opacity:0.15;fill:#c3c7d1;fill-opacity:1;stroke:none"
       d="m 33,1042.3622 c -1.662,0 -3,1.338 -3,3 h 3 z"
       id="groove-topleft"
       inkscape:connector-curvature="0" />
    <path
       id="groove-highlight-center"
       d="m 48,1046.3622 h 2 v 2 h -2 z"
       style="fill:#0072ff;fill-opacity:1;stroke:none;stroke-width:0.666667"
       inkscape:connector-curvature="0" />
    <path
       id="groove-highlight-top"
       d="m 50,1042.3622 h -2 v 3 h 2 z"
       style="fill:#0072ff;fill-opacity:1;stroke:none;stroke-width:0.816497"
       inkscape:connector-curvature="0" />
    <path
       id="groove-highlight-topright"
       d="m 54,1045.3622 c 0,-1.662 -1.338,-3 -3,-3 v 3 z"
       style="fill:#0072ff;fill-opacity:1;stroke:none"
       inkscape:connector-curvature="0" />
    <path
       id="groove-highlight-right"
       d="m 54,1048.3622 v -2 h -3 v 2 z"
       style="fill:#0072ff;fill-opacity:1;stroke:none;stroke-width:0.816497"
       inkscape:connector-curvature="0" />
    <path
       id="groove-highlight-bottomright"
       d="m 51,1052.3622 c 1.662,0 3,-1.338 3,-3 h -3 z"
       style="fill:#0072ff;fill-opacity:1;stroke:none"
       inkscape:connector-curvature="0" />
    <path
       id="groove-highlight-bottom"
       d="m 48,1052.3622 h 2 v -3 h -2 z"
       style="fill:#0072ff;fill-opacity:1;stroke:none;stroke-width:0.816497"
       inkscape:connector-curvature="0" />
    <path
       style="fill:#0072ff;fill-opacity:1;stroke:none"
       d="m 75,13.84375 c 0,1.662 1.338,3 3,3 v -3 z"
       transform="translate(-31,1035.5061)"
       id="groove-highlight-bottomleft"
       inkscape:connector-curvature="0" />
    <path
       id="groove-highlight-left"
       d="m 44,1046.3622 v 2 h 3 v -2 z"
       style="fill:#0072ff;fill-opacity:1;stroke:none;stroke-width:0.816497"
       inkscape:connector-curvature="0" />
    <path
       id="groove-highlight-topleft"
       d="m 47,1042.3622 c -1.662,0 -3,1.338 -3,3 h 3 z"
       style="fill:#0072ff;fill-opacity:1;stroke:none"
       inkscape:connector-curvature="0" />
    <g
       transform="translate(-31,32.000048)"
       id="g3409">
      <ellipse
         style="fill:#3498db;fill-opacity:0;stroke:none"
         id="path4489"
         transform="matrix(1.2222222,0,0,1.2941176,-2.6666664,1025.4798)"
         cx="12"
         cy="11.5"
         rx="9"
         ry="8.5" />
      <rect
         style="fill:#3498db;fill-opacity:0;stroke:none"
         id="rect4491"
         width="24"
         height="24"
         x="0"
         y="1028.3622"
         ry="1.994041" />
    </g>
    <g
       id="g4247"
       transform="translate(-31,66.000048)">
      <ellipse
         transform="matrix(1.2222222,0,0,1.2941176,-2.6666664,1025.4798)"
         id="path4495"
         style="fill:#3498db;fill-opacity:0;stroke:none"
         cx="12"
         cy="11.5"
         rx="9"
         ry="8.5" />
      <rect
         ry="1.994041"
         y="1028.3622"
         x="0"
         height="24"
         width="24"
         id="rect4497"
         style="fill:#3498db;fill-opacity:0;stroke:none" />
    </g>
    <rect
       ry="3"
       rx="0"
       y="1038.3622"
       x="2"
       height="3"
       width="3"
       id="hint-tile-center"
       style="fill:#000000;fill-opacity:1;fill-rule:nonzero;stroke:none" />
    <path
       style="fill:none;stroke:none"
       d="m 76.13149,1035.5061 c -6.62742,0 -12,5.3726 -12,12 0,6.6274 5.37258,12 12,12 6.62742,0 12,-5.3726 12,-12 0,-6.6274 -5.37258,-12 -12,-12 z m 0,2.4 c 5.30194,0 9.6,4.2981 9.6,9.6 0,5.3019 -4.29806,9.6 -9.6,9.6 -5.30194,0 -9.6,-4.2981 -9.6,-9.6 0,-5.3019 4.29806,-9.6 9.6,-9.6 z"
       id="horizontal-slider-shadow"
       inkscape:connector-curvature="0" />
    <g
       id="horizontal-slider-handle"
       transform="translate(-4,-66)">
      <g
         id="g4254">
        <circle
           style="fill:#ffffff;fill-opacity:1;stroke:none"
           id="circle4239"
           cx="12"
           cy="1168.3622"
           r="8" />
        <path
           style="opacity:0.4;fill:#000000;fill-opacity:1;stroke:none"
           d="m 12,1159.3622 a 9,9 0 0 0 -9,9 9,9 0 0 0 9,9 9,9 0 0 0 9,-9 9,9 0 0 0 -9,-9 z m 0,1 a 8,8 0 0 1 8,8 8,8 0 0 1 -8,8 8,8 0 0 1 -8,-8 8,8 0 0 1 8,-8 z"
           id="path4225"
           inkscape:connector-curvature="0" />
      </g>
      <rect
         y="1156.3622"
         x="0"
         height="24"
         width="24"
         id="rect4259"
         style="opacity:1;fill:#ff0000;fill-opacity:0;stroke:none;stroke-width:0.5;stroke-miterlimit:4;stroke-dasharray:none;stroke-opacity:1" />
    </g>
    <g
       id="vertical-slider-handle"
       transform="translate(-4,-96)">
      <g
         id="g4270">
        <circle
           r="8"
           cy="1168.3622"
           cx="12"
           id="circle4276"
           style="fill:#ffffff;fill-opacity:1;stroke:none" />
        <path
           inkscape:connector-curvature="0"
           id="path4272"
           d="m 12,1159.3622 a 9,9 0 0 0 -9,9 9,9 0 0 0 9,9 9,9 0 0 0 9,-9 9,9 0 0 0 -9,-9 z m 0,1 a 8,8 0 0 1 8,8 8,8 0 0 1 -8,8 8,8 0 0 1 -8,-8 8,8 0 0 1 8,-8 z"
           style="opacity:0.4;fill:#000000;fill-opacity:1;stroke:none" />
      </g>
      <rect
         style="opacity:1;fill:#ff0000;fill-opacity:0;stroke:none;stroke-width:0.5;stroke-miterlimit:4;stroke-dasharray:none;stroke-opacity:1"
         id="rect4278"
         width="24"
         height="24"
         x="0"
         y="1156.3622" />
    </g>
    <circle
       id="hint-handle-size"
       cx="-19"
       cy="1047.3622"
       r="11"
       style="fill:#0a0a0a;fill-opacity:1;stroke-width:1.46667" />
  </g>
</svg>
